<svg xmlns="http://www.w3.org/2000/svg" version="1.1"
  xmlns:xlink="http://www.w3.org/1999/xlink"
  xmlns:svgjs="http://svgjs.dev/svgjs" viewBox="0 0 1422 800">
  <defs>
    <linearGradient x1="50%" y1="0%" x2="50%" y2="100%" id="oooscillate-grad">
      <stop stop-color="hsl(37, 99%, 67%)" stop-opacity="1" offset="0%"></stop>
      <stop stop-color="hsl(316, 73%, 52%)" stop-opacity="1" offset="100%"></stop>
    </linearGradient>
  </defs>
  <g stroke-width="4" stroke="url(#oooscillate-grad)" fill="none" stroke-linecap="round">
    <path d="M 0 3036 Q 355.5 -100 711 400 Q 1066.5 900 1422 3036" opacity="0.70"></path>
    <path d="M 0 2992 Q 355.5 -100 711 400 Q 1066.5 900 1422 2992" opacity="0.99"></path>
    <path d="M 0 2948 Q 355.5 -100 711 400 Q 1066.5 900 1422 2948" opacity="0.09"></path>
    <path d="M 0 2904 Q 355.5 -100 711 400 Q 1066.5 900 1422 2904" opacity="0.16"></path>
    <path d="M 0 2860 Q 355.5 -100 711 400 Q 1066.5 900 1422 2860" opacity="0.69"></path>
    <path d="M 0 2816 Q 355.5 -100 711 400 Q 1066.5 900 1422 2816" opacity="0.73"></path>
    <path d="M 0 2772 Q 355.5 -100 711 400 Q 1066.5 900 1422 2772" opacity="0.71"></path>
    <path d="M 0 2728 Q 355.5 -100 711 400 Q 1066.5 900 1422 2728" opacity="0.76"></path>
    <path d="M 0 2684 Q 355.5 -100 711 400 Q 1066.5 900 1422 2684" opacity="0.87"></path>
    <path d="M 0 2640 Q 355.5 -100 711 400 Q 1066.5 900 1422 2640" opacity="0.93"></path>
    <path d="M 0 2596 Q 355.5 -100 711 400 Q 1066.5 900 1422 2596" opacity="0.44"></path>
    <path d="M 0 2552 Q 355.5 -100 711 400 Q 1066.5 900 1422 2552" opacity="0.12"></path>
    <path d="M 0 2508 Q 355.5 -100 711 400 Q 1066.5 900 1422 2508" opacity="0.71"></path>
    <path d="M 0 2464 Q 355.5 -100 711 400 Q 1066.5 900 1422 2464" opacity="0.95"></path>
    <path d="M 0 2420 Q 355.5 -100 711 400 Q 1066.5 900 1422 2420" opacity="0.73"></path>
    <path d="M 0 2376 Q 355.5 -100 711 400 Q 1066.5 900 1422 2376" opacity="0.27"></path>
    <path d="M 0 2332 Q 355.5 -100 711 400 Q 1066.5 900 1422 2332" opacity="0.86"></path>
    <path d="M 0 2288 Q 355.5 -100 711 400 Q 1066.5 900 1422 2288" opacity="0.34"></path>
    <path d="M 0 2244 Q 355.5 -100 711 400 Q 1066.5 900 1422 2244" opacity="0.95"></path>
    <path d="M 0 2200 Q 355.5 -100 711 400 Q 1066.5 900 1422 2200" opacity="0.93"></path>
    <path d="M 0 2156 Q 355.5 -100 711 400 Q 1066.5 900 1422 2156" opacity="0.94"></path>
    <path d="M 0 2112 Q 355.5 -100 711 400 Q 1066.5 900 1422 2112" opacity="0.18"></path>
    <path d="M 0 2068 Q 355.5 -100 711 400 Q 1066.5 900 1422 2068" opacity="0.17"></path>
    <path d="M 0 2024 Q 355.5 -100 711 400 Q 1066.5 900 1422 2024" opacity="0.46"></path>
    <path d="M 0 1980 Q 355.5 -100 711 400 Q 1066.5 900 1422 1980" opacity="0.92"></path>
    <path d="M 0 1936 Q 355.5 -100 711 400 Q 1066.5 900 1422 1936" opacity="0.50"></path>
    <path d="M 0 1892 Q 355.5 -100 711 400 Q 1066.5 900 1422 1892" opacity="0.22"></path>
    <path d="M 0 1848 Q 355.5 -100 711 400 Q 1066.5 900 1422 1848" opacity="0.39"></path>
    <path d="M 0 1804 Q 355.5 -100 711 400 Q 1066.5 900 1422 1804" opacity="0.91"></path>
    <path d="M 0 1760 Q 355.5 -100 711 400 Q 1066.5 900 1422 1760" opacity="0.28"></path>
    <path d="M 0 1716 Q 355.5 -100 711 400 Q 1066.5 900 1422 1716" opacity="0.98"></path>
    <path d="M 0 1672 Q 355.5 -100 711 400 Q 1066.5 900 1422 1672" opacity="0.27"></path>
    <path d="M 0 1628 Q 355.5 -100 711 400 Q 1066.5 900 1422 1628" opacity="0.71"></path>
    <path d="M 0 1584 Q 355.5 -100 711 400 Q 1066.5 900 1422 1584" opacity="0.55"></path>
    <path d="M 0 1540 Q 355.5 -100 711 400 Q 1066.5 900 1422 1540" opacity="0.10"></path>
    <path d="M 0 1496 Q 355.5 -100 711 400 Q 1066.5 900 1422 1496" opacity="0.54"></path>
    <path d="M 0 1452 Q 355.5 -100 711 400 Q 1066.5 900 1422 1452" opacity="0.93"></path>
    <path d="M 0 1408 Q 355.5 -100 711 400 Q 1066.5 900 1422 1408" opacity="0.14"></path>
    <path d="M 0 1364 Q 355.5 -100 711 400 Q 1066.5 900 1422 1364" opacity="0.67"></path>
    <path d="M 0 1320 Q 355.5 -100 711 400 Q 1066.5 900 1422 1320" opacity="0.55"></path>
    <path d="M 0 1276 Q 355.5 -100 711 400 Q 1066.5 900 1422 1276" opacity="0.32"></path>
    <path d="M 0 1232 Q 355.5 -100 711 400 Q 1066.5 900 1422 1232" opacity="0.08"></path>
    <path d="M 0 1188 Q 355.5 -100 711 400 Q 1066.5 900 1422 1188" opacity="0.58"></path>
    <path d="M 0 1144 Q 355.5 -100 711 400 Q 1066.5 900 1422 1144" opacity="0.95"></path>
    <path d="M 0 1100 Q 355.5 -100 711 400 Q 1066.5 900 1422 1100" opacity="0.83"></path>
    <path d="M 0 1056 Q 355.5 -100 711 400 Q 1066.5 900 1422 1056" opacity="0.87"></path>
    <path d="M 0 1012 Q 355.5 -100 711 400 Q 1066.5 900 1422 1012" opacity="0.97"></path>
    <path d="M 0 968 Q 355.5 -100 711 400 Q 1066.5 900 1422 968" opacity="0.18"></path>
    <path d="M 0 924 Q 355.5 -100 711 400 Q 1066.5 900 1422 924" opacity="0.76"></path>
    <path d="M 0 880 Q 355.5 -100 711 400 Q 1066.5 900 1422 880" opacity="0.12"></path>
    <path d="M 0 836 Q 355.5 -100 711 400 Q 1066.5 900 1422 836" opacity="0.75"></path>
    <path d="M 0 792 Q 355.5 -100 711 400 Q 1066.5 900 1422 792" opacity="0.75"></path>
    <path d="M 0 748 Q 355.5 -100 711 400 Q 1066.5 900 1422 748" opacity="0.91"></path>
    <path d="M 0 704 Q 355.5 -100 711 400 Q 1066.5 900 1422 704" opacity="0.98"></path>
    <path d="M 0 660 Q 355.5 -100 711 400 Q 1066.5 900 1422 660" opacity="0.32"></path>
    <path d="M 0 616 Q 355.5 -100 711 400 Q 1066.5 900 1422 616" opacity="0.91"></path>
    <path d="M 0 572 Q 355.5 -100 711 400 Q 1066.5 900 1422 572" opacity="0.50"></path>
    <path d="M 0 528 Q 355.5 -100 711 400 Q 1066.5 900 1422 528" opacity="0.47"></path>
    <path d="M 0 484 Q 355.5 -100 711 400 Q 1066.5 900 1422 484" opacity="0.49"></path>
    <path d="M 0 440 Q 355.5 -100 711 400 Q 1066.5 900 1422 440" opacity="0.31"></path>
    <path d="M 0 396 Q 355.5 -100 711 400 Q 1066.5 900 1422 396" opacity="0.22"></path>
    <path d="M 0 352 Q 355.5 -100 711 400 Q 1066.5 900 1422 352" opacity="0.82"></path>
    <path d="M 0 308 Q 355.5 -100 711 400 Q 1066.5 900 1422 308" opacity="0.33"></path>
    <path d="M 0 264 Q 355.5 -100 711 400 Q 1066.5 900 1422 264" opacity="0.32"></path>
    <path d="M 0 220 Q 355.5 -100 711 400 Q 1066.5 900 1422 220" opacity="0.67"></path>
    <path d="M 0 176 Q 355.5 -100 711 400 Q 1066.5 900 1422 176" opacity="0.64"></path>
    <path d="M 0 132 Q 355.5 -100 711 400 Q 1066.5 900 1422 132" opacity="0.23"></path>
    <path d="M 0 88 Q 355.5 -100 711 400 Q 1066.5 900 1422 88" opacity="0.52"></path>
  </g>
</svg>